<?xml version="1.0" encoding="utf-8"?>
<!-- Generator: Adobe Illustrator 23.0.1, SVG Export Plug-In . SVG Version: 6.00 Build 0)  -->
<svg version="1.1" id="Layer_1" xmlns="http://www.w3.org/2000/svg" xmlns:xlink="http://www.w3.org/1999/xlink" x="0px" y="0px"
	 viewBox="0 0 64 64" style="enable-background:new 0 0 64 64;" xml:space="preserve">
<style type="text/css">
	.st0{fill:#FFFFFF;}
</style>
<g>
	<path class="st0" d="M40,32l15.2-15.2c1.9-1.9,1.9-4.9,0-6.8L54,8.8c-1.9-1.9-4.9-1.9-6.8,0L32,24L16.8,8.8c-1.9-1.9-4.9-1.9-6.8,0
		L8.8,10c-1.9,1.9-1.9,4.9,0,6.8L24,32L8.8,47.2c-1.9,1.9-1.9,4.9,0,6.8l1.2,1.2c1.9,1.9,4.9,1.9,6.8,0L32,40l15.2,15.2
		c1.9,1.9,4.9,1.9,6.8,0l1.2-1.2c1.9-1.9,1.9-4.9,0-6.8L40,32z"/>
</g>
</svg>
