<?xml version="1.0" encoding="utf-8"?>
<!-- Generator: Adobe Illustrator 23.0.1, SVG Export Plug-In . SVG Version: 6.00 Build 0)  -->
<svg version="1.1" id="Layer_1" xmlns="http://www.w3.org/2000/svg" xmlns:xlink="http://www.w3.org/1999/xlink" x="0px" y="0px"
	 viewBox="0 0 64 64" style="enable-background:new 0 0 64 64;" xml:space="preserve">
<style type="text/css">
	.st0{fill:#FFFFFF;}
</style>
<g>
	<path class="st0" d="M59.2,64H4.8C2.2,64,0,61.8,0,59.2v-1.7c0-2.7,2.2-4.8,4.8-4.8h54.4c2.7,0,4.8,2.2,4.8,4.8v1.7
		C64,61.8,61.8,64,59.2,64z"/>
</g>
<g>
	<path class="st0" d="M59.2,37.7H4.8c-2.7,0-4.8-2.2-4.8-4.8v-1.7c0-2.7,2.2-4.8,4.8-4.8h54.4c2.7,0,4.8,2.2,4.8,4.8v1.7
		C64,35.5,61.8,37.7,59.2,37.7z"/>
</g>
<g>
	<path class="st0" d="M59.2,11.4H18.8c-2.7,0-4.8-2.2-4.8-4.8V4.8C14,2.2,16.2,0,18.8,0h40.4C61.8,0,64,2.2,64,4.8v1.7
		C64,9.2,61.8,11.4,59.2,11.4z"/>
</g>
</svg>
